<svg xmlns="http://www.w3.org/2000/svg" width="500.698" height="487.565" viewBox="0 0 500.698 487.565"><g transform="translate(-6391.302 -755.635)"><path d="M456.9,118.571c-35.852-36.75-85.353-61.311-135.275-72.71Q310.8,43.4,299.842,41.546C189.117,22.836,121.425,121.178,101.785,163.66s-71.261,134.5-70.514,189.1S147.23,503.134,266.185,506.13,478.648,444.041,498.85,342.292c8.522-42.9,17.272-88.338,8.133-131.879C499.413,174.334,481.319,143.619,456.9,118.571Z" transform="translate(6371.455 736.97)" fill="#042175"/><path d="M456.9,118.571c-35.852-36.75-85.353-61.311-135.275-72.71Q310.8,43.4,299.842,41.546C189.117,22.836,121.425,121.178,101.785,163.66s-71.261,134.5-70.514,189.1S147.23,503.134,266.185,506.13,478.648,444.041,498.85,342.292c8.522-42.9,17.272-88.338,8.133-131.879C499.413,174.334,481.319,143.619,456.9,118.571Z" transform="translate(6371.455 736.97)" fill="#fff" opacity="0.7"/><g transform="translate(6401.222 1205.918)"><line x2="490.778" transform="translate(0)" fill="none" stroke="#263238" stroke-miterlimit="10" stroke-width="1"/></g><g transform="translate(6420.884 967.015)"><g transform="translate(0 0)" opacity="0.15"><path d="M64.791,318.539c6.078.195,18.645-5.137,18.645-5.137.13-.054-6.024-7.214-6.467-7.614-5.094-4.715-17.715-10.815-24.485-7-4.878,2.747-5.689,9.052-2.6,13.443C53.067,316.711,59.611,318.366,64.791,318.539Z" transform="translate(-48.06 -208.984)"/><path d="M82.612,360.171c5.689-1.352,15.693-9.139,16.482-9.766a161.336,161.336,0,0,0,14.417,16.244c2.985,2.985,6.089,5.894,9.247,8.771-1.633-1.1-3.1-2.077-3.32-2.185-6.165-3.2-19.943-5.754-25.459-.281-3.98,3.937-3.093,10.231,1.049,13.649,4.229,3.493,10.988,3.353,16.028,2.152,5.116-1.222,13.778-7.69,16.05-9.431,1.222,1.092,2.423,2.2,3.645,3.277,5.873,5.213,11.756,10.393,17.369,15.66,1.979,1.849,3.861,3.753,5.754,5.635-1.449-.973-2.682-1.784-2.888-1.893-6.154-3.19-19.943-5.754-25.459-.281-3.98,3.937-3.093,10.231,1.049,13.649,4.24,3.493,10.988,3.353,16.028,2.152,4.878-1.168,12.935-7.062,15.639-9.117,1.871,1.99,3.764,3.991,5.483,6,1.146,1.406,2.358,2.671,3.428,4.153,1.092,1.438,2.185,2.866,3.255,4.272,1.968,2.79,4.012,5.656,5.873,8.425,1.3,1.914,2.509,3.764,3.731,5.624-1.947-1.871-5.84-5.44-6.2-5.7-5.6-4.088-18.84-8.706-25.123-4.131-4.532,3.288-4.607,9.647-1.027,13.649,3.656,4.088,10.35,4.986,15.52,4.553,5.689-.465,16.352-6.359,17.672-7.095,2.012,3.082,3.937,6.111,5.7,8.987,1.59,2.574,3.071,5.029,4.467,7.387l4.521-1.806c-1.579-2.552-3.266-5.234-5.094-8.046-2.022-3.147-4.25-6.457-6.576-9.842a98.529,98.529,0,0,0,8.025-8.576c5.289,2.531,16.623,3.439,18.083,3.547-.022,3.677-.087,7.268-.205,10.642q-.114,3.488-.26,6.705l4.791-1.9c.032-1.536.054-3.093.076-4.7.043-3.742.011-7.733-.054-11.832,1.471-.26,13.476-2.423,18.191-5.656,4.272-2.931,8.9-7.852,9.16-13.335.249-5.364-3.829-10.242-9.42-9.928-7.754.422-15.109,12.362-16.872,19.067-.108.4-.757,4.813-1.114,7.614-.032-1.676-.054-3.3-.108-5.029-.087-3.418-.281-6.813-.487-10.48-.151-1.763-.314-3.547-.476-5.343-.119-1.784-.476-3.666-.7-5.516-.627-4.283-1.471-8.587-2.412-12.9,2.985-.086,13.595-.562,18.278-2.823s9.993-6.413,11.075-11.788c1.06-5.267-2.228-10.7-7.8-11.248-7.733-.757-16.807,9.928-19.564,16.3-.173.4-1.633,5.191-2.39,7.83-.584-2.6-1.157-5.18-1.839-7.787-1.958-7.516-4.185-15.055-6.359-22.593-.671-2.3-1.309-4.618-1.958-6.922,1.06-.022,13.681-.3,18.937-2.834,4.672-2.25,9.993-6.413,11.075-11.788,1.06-5.267-2.228-10.7-7.8-11.237-7.733-.757-16.807,9.928-19.564,16.288-.205.476-2.3,7.376-2.758,9.16-1.428-5.083-2.8-10.155-3.947-15.217a161.611,161.611,0,0,1-3.428-20.722c.5-.011,13.659-.249,19.045-2.834,4.672-2.25,9.993-6.413,11.075-11.788,1.06-5.267-2.228-10.7-7.809-11.248-7.733-.757-16.807,9.928-19.564,16.3-.216.5-2.466,7.917-2.779,9.3-.032-.4-.119-.822-.151-1.222a117.912,117.912,0,0,1,.368-21.046c.368-3.872.93-7.538,1.557-11.107,2.455.206,13.7,1.027,18.8-.768,4.888-1.72,10.631-5.278,12.3-10.5,1.633-5.116-1.038-10.88-6.521-12.037-7.6-1.6-17.791,8.025-21.241,14.049-.184.324-1.72,3.872-2.8,6.467.3-1.6.595-3.266.919-4.791,1.211-5.754,2.671-10.945,4-15.53.779-2.606,1.536-4.943,2.26-7.116,2.52-1.049,12.61-5.429,16.244-9.3,3.537-3.785,7.008-9.582,6.078-14.99-.908-5.289-5.937-9.171-11.334-7.679-7.484,2.087-12.1,15.314-12.372,22.257-.022.595.681,10.015.811,9.961,0,0,.119-.054.151-.065-.746,2.087-1.514,4.326-2.314,6.792-1.438,4.564-3.017,9.744-4.348,15.487a163.2,163.2,0,0,0-3.439,18.742,120.628,120.628,0,0,0-.833,21.306c0,.086.022.173.022.26-.8-2.131-3.255-8.014-3.493-8.436-3.374-6.067-13.454-15.8-21.079-14.287-5.494,1.092-8.23,6.824-6.651,11.961,1.611,5.245,7.311,8.858,12.178,10.642,5.494,2,18.126,1.027,19.132.952a162.008,162.008,0,0,0,3.061,21.5c.854,4.142,1.828,8.274,2.866,12.416-.757-1.817-1.438-3.439-1.568-3.656-3.374-6.067-13.454-15.79-21.079-14.276-5.494,1.092-8.23,6.824-6.651,11.961,1.6,5.245,7.311,8.858,12.178,10.642,4.943,1.806,15.736,1.19,18.58.995.411,1.579.811,3.169,1.233,4.748,2.022,7.592,4.066,15.152,5.851,22.636.627,2.639,1.157,5.256,1.687,7.873-.671-1.611-1.255-2.963-1.363-3.169-3.374-6.067-13.454-15.8-21.079-14.287-5.494,1.092-8.23,6.824-6.651,11.961,1.6,5.245,7.311,8.858,12.178,10.642,4.715,1.72,14.676,1.244,18.072,1.027.465,2.7.93,5.4,1.265,8.036.184,1.806.487,3.526.573,5.354q.178,2.709.357,5.353c.1,3.418.227,6.932.249,10.264.032,2.314.011,4.531,0,6.749-.595-2.628-1.871-7.754-2.022-8.176a35.631,35.631,0,0,0-10.88-14.362,11.407,11.407,0,0,0-.865-1.839c-2.758-4.607-8.836-6.424-13.335-3.093-6.24,4.64-5.786,18.645-3.547,25.21.13.389,2.033,4.434,3.266,6.965-.952-1.373-1.871-2.725-2.866-4.131-1.958-2.79-4-5.526-6.175-8.468q-1.655-2.077-3.342-4.2c-1.082-1.428-2.412-2.79-3.634-4.207-2.877-3.223-5.959-6.349-9.128-9.431,2.444-1.72,11.031-7.96,13.692-12.437,2.65-4.456,4.791-10.858,2.725-15.941-2.022-4.975-7.765-7.69-12.708-5.072-6.868,3.634-8.544,17.553-7.333,24.388.076.422,1.492,5.234,2.325,7.852-1.914-1.839-3.829-3.677-5.829-5.472-5.775-5.18-11.788-10.253-17.769-15.336-1.828-1.557-3.634-3.126-5.451-4.694.876-.606,11.237-7.8,14.233-12.816,2.65-4.456,4.791-10.858,2.725-15.941-2.022-4.975-7.765-7.69-12.708-5.072-6.868,3.634-8.544,17.553-7.333,24.388.1.519,2.141,7.43,2.758,9.16-3.991-3.45-7.938-6.932-11.691-10.512a163.682,163.682,0,0,1-14.3-15.39c.411-.281,11.259-7.744,14.319-12.87,2.65-4.456,4.791-10.858,2.725-15.941-2.022-4.975-7.765-7.69-12.708-5.072-6.868,3.634-8.544,17.553-7.333,24.388.1.541,2.314,7.971,2.812,9.29-.26-.314-.552-.616-.8-.93a119.28,119.28,0,0,1-11.3-17.758c-1.828-3.428-3.385-6.8-4.834-10.123,2.163-1.179,11.994-6.695,15.249-11.01,3.126-4.131,5.959-10.274,4.467-15.552-1.46-5.17-6.868-8.5-12.08-6.435-7.224,2.866-10.415,16.5-9.961,23.436.022.379.7,4.175,1.233,6.932-.627-1.5-1.309-3.05-1.882-4.51-2.163-5.462-3.807-10.6-5.234-15.163-.79-2.6-1.449-4.964-2.044-7.192,1.514-2.271,7.516-11.486,8.414-16.72.865-5.1.552-11.864-3.2-15.855-3.677-3.915-10.015-4.38-13.681-.151-5.094,5.873-1.644,19.456,1.958,25.394.314.508,6.089,7.982,6.175,7.863a1.142,1.142,0,0,0,.087-.141c.53,2.152,1.125,4.445,1.817,6.943,1.319,4.6,2.855,9.788,4.91,15.314A162.269,162.269,0,0,0,87.4,331.371,120.083,120.083,0,0,0,98.457,349.6l.162.195c-1.849-1.33-7.138-4.888-7.571-5.116-6.165-3.2-19.943-5.754-25.459-.281-3.98,3.937-3.093,10.231,1.049,13.649C70.813,361.512,77.573,361.382,82.612,360.171Z" transform="translate(-46.89 -215.662)"/><path d="M185.129,274.547c.141.022-1.049-9.344-1.19-9.917-1.655-6.738-8.814-18.786-16.558-19.337-5.581-.4-9.734,4.413-9.571,9.777.162,5.483,4.715,10.48,8.944,13.476C171.708,272.07,185.118,274.547,185.129,274.547Z" transform="translate(-39.115 -213.249)"/></g><g transform="translate(265.476 9.58)" opacity="0.15"><path d="M466.952,284.458c-5.613,2.347-19.251,1.828-19.262,1.828-.141-.011,3.071-8.879,3.331-9.42,3.093-6.219,12.708-16.406,20.4-15.249,5.537.833,8.533,6.435,7.2,11.637C477.27,278.586,471.732,282.458,466.952,284.458Z" transform="translate(-280.963 -221.503)"/><path d="M323.347,295.759c5.408-.13,15.617-4.9,17.845-5.97,1.849,3.1,3.688,6.338,5.4,9.831a118.237,118.237,0,0,1,7.83,19.543c.108.389.184.811.292,1.2-.779-1.179-5.526-7.311-5.905-7.7-4.845-4.975-17.12-11.724-24.085-8.274-5.018,2.487-6.154,8.739-3.3,13.281,2.92,4.64,9.377,6.641,14.546,7.084,5.948.508,18.342-3.948,18.807-4.121a160.965,160.965,0,0,1,4.164,20.592c.725,5.137,1.244,10.372,1.72,15.628-1.049-1.5-5.462-7.2-5.829-7.581-4.845-4.975-17.12-11.724-24.085-8.274-5.018,2.487-6.154,8.739-3.3,13.281,2.92,4.64,9.377,6.641,14.535,7.084,5.808.5,17.7-3.72,18.71-4.077.216,2.39.433,4.769.627,7.17.638,7.819,1.244,15.66,2.087,23.371.292,2.671.671,5.3,1.049,7.927-1.644-2.206-4.715-6.165-5.018-6.467-4.845-4.975-17.12-11.724-24.085-8.274-5.018,2.487-6.154,8.739-3.3,13.281,2.92,4.64,9.377,6.641,14.535,7.084,5.191.443,15.271-2.888,18.094-3.861.649,4.369,1.4,8.7,2.336,12.913.443,1.806.779,3.688,1.3,5.408q.73,2.612,1.46,5.17c1.114,3.493,2.141,6.738,3.277,9.961.562,1.633,1.125,3.158,1.687,4.737-1.33-2.487-3.515-6.392-3.753-6.716-4.034-5.646-15.141-14.189-22.549-11.821-5.332,1.7-7.408,7.7-5.267,12.632,2.185,5.029,8.263,7.982,13.3,9.2,5.559,1.341,17.553-.9,19.013-1.179,1.4,3.861,2.79,7.6,4.164,11.085.584,1.5,1.168,2.953,1.741,4.369l5.159.076q-1.282-2.969-2.628-6.175c-1.309-3.115-2.639-6.446-3.969-9.874,1.33-.616,11.594-5.5,15.639-9.744a101.723,101.723,0,0,0,10.545,5.159c-.963,3.991-1.871,7.884-2.65,11.54-.7,3.288-1.33,6.381-1.9,9.333l1.893.032h2.985q.7-4.023,1.536-8.447c.627-3.32,1.352-6.824,2.131-10.426,1.5.227,13.562,1.936,19.045.346,4.975-1.438,10.923-4.661,12.881-9.777,1.925-5.018-.411-10.923-5.819-12.383-7.495-2.033-18.234,6.976-22.009,12.794-.238.368-2.606,5.094-3.764,7.538.476-2.174.952-4.337,1.482-6.586.746-3.245,1.644-6.651,2.487-9.961q.746-2.547,1.525-5.148c.476-1.763,1.157-3.374,1.73-5.094.9-2.5,1.947-5.029,3-7.56,3.266.963,12.881,3.612,17.856,2.963,5.137-.671,11.5-2.942,14.222-7.711,2.661-4.661,1.244-10.858-3.872-13.13-7.106-3.147-19.078,4.142-23.7,9.312-.151.173-1.017,1.363-2.022,2.79,1.092-2.444,2.174-4.878,3.363-7.311,3.374-6.911,7.03-13.843,10.664-20.808.757-1.449,1.492-2.909,2.239-4.369,2.736.822,13.13,3.785,18.353,3.1,5.137-.671,11.507-2.953,14.222-7.711,2.661-4.672,1.244-10.858-3.872-13.13-7.106-3.147-19.078,4.142-23.7,9.312-.162.184-1.19,1.611-2.325,3.223,1.914-3.807,3.785-7.635,5.516-11.486a164.046,164.046,0,0,0,7.7-20.311c.963.3,13.075,4.012,18.872,3.266,5.137-.671,11.5-2.942,14.222-7.711,2.66-4.672,1.244-10.858-3.872-13.13-7.106-3.147-19.078,4.142-23.7,9.312-.324.368-4,5.57-5.256,7.473a2.094,2.094,0,0,1,.087-.238,119.313,119.313,0,0,0,3.85-20.97,162.478,162.478,0,0,0,.746-19.045c-.043-5.905-.454-11.291-.854-16.06-.238-2.585-.5-4.943-.768-7.138.022.022.13.1.13.1.119.076,2.866-8.955,2.974-9.539,1.244-6.824-.357-20.754-7.2-24.42-4.932-2.65-10.685.043-12.74,5.007-2.087,5.072.011,11.486,2.639,15.952,2.693,4.575,11.583,11.053,13.811,12.643.238,2.282.465,4.737.649,7.441.292,4.769.584,10.155.5,16.028-.022,1.568-.1,3.245-.151,4.878-.487-2.769-1.211-6.565-1.319-6.922-2.033-6.63-9.874-18.256-17.65-18.353-5.6-.076-9.463,4.964-9,10.307.476,5.462,5.31,10.188,9.7,12.946,4.586,2.877,15.725,4.532,18.169,4.867-.173,3.612-.422,7.322-.919,11.172A119.034,119.034,0,0,1,454,322.148c-.119.389-.292.768-.422,1.157,0-1.406-.573-9.139-.681-9.68-1.3-6.814-7.808-19.229-15.52-20.181-5.559-.692-9.961,3.893-10.08,9.258-.13,5.483,4.153,10.718,8.219,13.93,4.683,3.71,17.477,6.824,17.964,6.943a162.019,162.019,0,0,1-7.884,19.467c-2.228,4.683-4.683,9.344-7.192,13.984-.043-1.839-.584-9.02-.681-9.539-1.3-6.814-7.809-19.229-15.52-20.181-5.559-.692-9.95,3.893-10.08,9.258-.119,5.483,4.153,10.718,8.219,13.93,4.575,3.623,16.817,6.662,17.856,6.911-1.136,2.109-2.271,4.218-3.428,6.327-3.774,6.878-7.592,13.746-11.161,20.646-1.233,2.39-2.358,4.791-3.5,7.192-.151-2.747-.541-7.744-.616-8.165-1.3-6.814-7.809-19.229-15.52-20.181-5.559-.692-9.95,3.893-10.08,9.258-.119,5.483,4.153,10.718,8.219,13.93,4.077,3.234,14.319,6.013,17.218,6.759-1.871,4-3.634,8.025-5.18,12.059-.627,1.752-1.384,3.5-1.893,5.224q-.827,2.579-1.633,5.116c-.995,3.537-1.925,6.8-2.769,10.112-.433,1.666-.811,3.255-1.211,4.878.26-2.812.595-7.268.584-7.679-.249-6.932-4.8-20.192-12.286-22.3-5.386-1.525-10.426,2.336-11.367,7.625a10.672,10.672,0,0,0-.162,2.033,35.709,35.709,0,0,0-5.061,17.293c0,.443.638,5.689,1.017,8.36-.8-2.077-1.6-4.131-2.4-6.316-1.168-3.115-2.3-6.457-3.418-9.68q-.779-2.547-1.568-5.137c-.573-1.73-.9-3.45-1.374-5.2-.627-2.585-1.157-5.278-1.676-7.96,3.245-.995,12.729-4.1,16.525-7.387,3.915-3.4,7.971-8.8,7.6-14.276-.357-5.364-4.953-9.744-10.469-8.814-7.657,1.3-13.627,13.973-14.622,20.841-.032.227-.1,1.7-.151,3.439-.433-2.639-.876-5.267-1.222-7.96-.995-7.625-1.774-15.422-2.585-23.242-.173-1.633-.357-3.255-.541-4.878,2.736-.822,13.043-4.088,17.012-7.538,3.915-3.4,7.971-8.8,7.6-14.276-.357-5.364-4.953-9.744-10.469-8.814-7.668,1.3-13.627,13.973-14.622,20.841-.032.249-.108,2-.162,3.969-.5-4.24-1.049-8.457-1.73-12.621a164.66,164.66,0,0,0-4.78-21.187c.973-.281,13.13-3.872,17.542-7.69,3.915-3.4,7.971-8.8,7.6-14.276-.357-5.364-4.953-9.744-10.469-8.814-7.668,1.3-13.627,13.973-14.622,20.841-.076.487-.27,6.857-.26,9.128-.022-.076-.043-.162-.065-.249a119.956,119.956,0,0,0-8.349-19.619,163.512,163.512,0,0,0-9.885-16.3c-3.3-4.9-6.608-9.171-9.571-12.924-1.622-2.022-3.136-3.839-4.575-5.526h.162c.141,0-2.552-9.041-2.779-9.593-2.725-6.381-11.745-17.109-19.478-16.4-5.57.508-8.89,5.927-7.863,11.2,1.049,5.386,6.359,9.571,11.01,11.853,4.769,2.325,15.758,2.834,18.483,2.92,1.46,1.774,3,3.7,4.65,5.851,2.877,3.818,6.089,8.144,9.258,13.1.854,1.319,1.709,2.769,2.563,4.153-1.936-2.044-4.629-4.8-4.921-5.051-5.364-4.413-18.3-9.777-24.842-5.581-4.715,3.028-5.159,9.355-1.817,13.562C311.526,294.6,318.167,295.889,323.347,295.759Z" transform="translate(-293.528 -224.52)"/><path d="M338.1,286.139c-.119.076-2.336-9.106-2.412-9.7-.854-6.889,1.557-20.689,8.609-23.966,5.072-2.358,10.664.66,12.427,5.732,1.8,5.18-.681,11.475-3.558,15.779C349.774,279.044,338.115,286.128,338.1,286.139Z" transform="translate(-290.105 -222.308)"/></g></g><g transform="translate(6392 756.246)"><g transform="translate(76.424 102.933)" opacity="0.3"><rect width="37.453" height="64.847" transform="translate(73.17 43.649) rotate(132.305)" fill="none" stroke="#000" stroke-miterlimit="10" stroke-width="1"/><path d="M134.928,177.743a4.52,4.52,0,0,1,6.77.1l14.471-15.909a4.45,4.45,0,0,1-.443-.346,4.516,4.516,0,0,1-.3-6.381l.195-.195-34.273-31.18c-.054.076-.119.151-.173.216a4.52,4.52,0,0,1-6.77-.1L99.93,139.858a4.454,4.454,0,0,1,.443.346,4.52,4.52,0,0,1-.1,6.77l34.305,31.212A4.844,4.844,0,0,1,134.928,177.743ZM122.49,146.012a7.4,7.4,0,1,1,.487,10.458A7.4,7.4,0,0,1,122.49,146.012Z" transform="translate(-91.372 -115.312)" fill="none" stroke="#000" stroke-miterlimit="10" stroke-width="1"/></g><g transform="translate(235.644 0)" opacity="0.3"><rect width="37.453" height="64.847" transform="matrix(0.255, 0.967, -0.967, 0.255, 62.701, 0)" fill="none" stroke="#000" stroke-miterlimit="10" stroke-width="1"/><path d="M301.153,55.441a4.522,4.522,0,0,1,3.212-5.527c.184-.043.368-.076.552-.108l-5.483-20.8c-.173.065-.346.13-.53.184a4.522,4.522,0,0,1-5.526-3.212,2.387,2.387,0,0,1-.054-.27l-44.8,11.821a1.979,1.979,0,0,1,.087.27,4.522,4.522,0,0,1-3.212,5.527c-.184.043-.368.076-.552.108l5.483,20.8c.173-.065.346-.13.53-.184a4.522,4.522,0,0,1,5.527,3.212c.043.184.076.368.108.552l44.85-11.832A5.391,5.391,0,0,1,301.153,55.441Zm-33.4-6.792a7.406,7.406,0,1,1,9.052,5.267A7.416,7.416,0,0,1,267.756,48.649Z" transform="translate(-238.78 -20.376)" fill="none" stroke="#000" stroke-miterlimit="10" stroke-width="1"/></g><g transform="translate(345.851 200.679)" opacity="0.3"><rect width="37.453" height="64.847" transform="matrix(-0.587, -0.81, 0.81, -0.587, 21.985, 68.387)" fill="none" stroke="#000" stroke-miterlimit="10" stroke-width="1"/><path d="M350.182,241.3a4.528,4.528,0,0,1-1.006,6.316,4.313,4.313,0,0,1-.476.292l12.621,17.412a4.452,4.452,0,0,1,.433-.357,4.528,4.528,0,0,1,6.316,1.006c.054.076.1.151.151.238l37.518-27.2c-.054-.076-.119-.141-.173-.216a4.528,4.528,0,0,1,1.006-6.316,4.317,4.317,0,0,1,.476-.292l-12.621-17.412a4.457,4.457,0,0,1-.433.357,4.528,4.528,0,0,1-6.316-1.006,4.315,4.315,0,0,1-.292-.476l-37.55,27.222C349.944,241.012,350.074,241.153,350.182,241.3Zm33.6-5.71a7.406,7.406,0,1,1-10.339-1.644A7.417,7.417,0,0,1,383.784,235.594Z" transform="translate(-340.523 -205.736)" fill="none" stroke="#000" stroke-miterlimit="10" stroke-width="1"/></g><g transform="translate(381.328 89.886)" opacity="0.3"><rect width="37.453" height="64.847" transform="translate(0 28.985) rotate(-50.706)" fill="none" stroke="#000" stroke-miterlimit="10" stroke-width="1"/><path d="M401.936,111.975a4.516,4.516,0,0,1-6.359.638,4.606,4.606,0,0,1-.411-.379L381.55,128.879a4.351,4.351,0,0,1,.454.324,4.516,4.516,0,0,1,.638,6.359c-.065.076-.13.141-.184.205L418.31,165.11l.162-.227a4.516,4.516,0,0,1,6.359-.638,4.6,4.6,0,0,1,.411.379l13.616-16.644a4.352,4.352,0,0,1-.454-.324,4.516,4.516,0,0,1-.638-6.359,4.6,4.6,0,0,1,.379-.411l-35.9-29.374A3.187,3.187,0,0,1,401.936,111.975ZM416.029,143a7.409,7.409,0,1,1-1.038-10.426A7.4,7.4,0,0,1,416.029,143Z" transform="translate(-373.322 -103.268)" fill="none" stroke="#000" stroke-miterlimit="10" stroke-width="1"/></g><g transform="translate(0 329.027)" opacity="0.3"><rect width="37.453" height="64.847" transform="matrix(-0.587, -0.81, 0.81, -0.587, 21.985, 68.387)" fill="none" stroke="#000" stroke-miterlimit="10" stroke-width="1"/><path d="M30.392,359.994a4.528,4.528,0,0,1-1.006,6.316,4.316,4.316,0,0,1-.476.292l12.621,17.412a4.452,4.452,0,0,1,.433-.357,4.528,4.528,0,0,1,6.316,1.006c.054.076.1.151.151.238l37.518-27.2c-.054-.076-.119-.141-.173-.216a4.528,4.528,0,0,1,1.006-6.316,4.317,4.317,0,0,1,.476-.292L74.636,333.465a4.452,4.452,0,0,1-.433.357,4.528,4.528,0,0,1-6.316-1.006,4.317,4.317,0,0,1-.292-.476l-37.55,27.222C30.154,359.691,30.273,359.843,30.392,359.994Zm33.6-5.721a7.407,7.407,0,1,1-10.35-1.655A7.395,7.395,0,0,1,63.994,354.273Z" transform="translate(-20.737 -324.41)" fill="none" stroke="#000" stroke-miterlimit="10" stroke-width="1"/></g></g><path d="M90.1,231.045l30.261,13.941,24.95-33.613s-.357-8.468,0-9.712,3.353-5.645,3.883-6.359,1.59,0,1.763,1.06-.53,1.947-.887,2.823-1.06,2.823-1.06,2.823l.887,2.65,9.355-7.419s2.12-2.823,2.823-1.59h0a2.186,2.186,0,0,1-.141,2.379l-4.272,5.743,2.823.173,6.889-5.829s1.233-.53,1.417,1.06h0a3.212,3.212,0,0,1-.995,2.682l-4.218,3.937-2.725,1.676,8.122-3.353s1.06,1.06.7,1.59l-8.825,6.889,6.532-1.06s.887,1.233.357,1.947L149.732,218.6s-25.123,47.208-25.48,47.911-4.056,2.293-6.889,1.417-38.913-16.59-38.913-16.59" transform="translate(6375.301 749.67)" fill="#4d6ac1" stroke="#263238" stroke-miterlimit="10" stroke-width="1"/><path d="M132.874,243.427l13.205-24.81,18.007-5.116c.53-.7-.357-1.947-.357-1.947l-6.532,1.06,8.825-6.889c.357-.53-.7-1.59-.7-1.59l-8.122,3.353,2.725-1.676,4.218-3.937a3.188,3.188,0,0,0,.995-2.682c-.173-1.59-1.417-1.06-1.417-1.06l-6.889,5.829-2.823-.173,4.272-5.743a2.164,2.164,0,0,0,.141-2.379h0c-.7-1.233-2.823,1.59-2.823,1.59l-9.355,7.419-.887-2.65s.7-1.947,1.06-2.823,1.06-1.763.887-2.823-1.233-1.763-1.763-1.06-3.526,5.116-3.883,6.359,0,9.712,0,9.712l-18.515,24.94Z" transform="translate(6378.943 749.672)" fill="#fff" stroke="#263238" stroke-miterlimit="10" stroke-width="1"/><path d="M144.565,203.95a9.5,9.5,0,0,1,2.314,2.866c.552,1.384-1.936,4.7-3.05,5.267" transform="translate(6380.63 750.398)" fill="none" stroke="#263238" stroke-miterlimit="10" stroke-width="1"/><g transform="translate(6488.676 860.237)"><g transform="translate(0 0)"><circle cx="48.657" cy="48.657" r="48.657" transform="translate(0 68.811) rotate(-45)" fill="#fff" stroke="#263238" stroke-miterlimit="10" stroke-width="1"/></g><g transform="translate(14.6 14.589)"><circle cx="40.859" cy="40.859" r="40.859" transform="matrix(0.908, -0.419, 0.419, 0.908, 0, 34.216)" fill="#fff" stroke="#263238" stroke-miterlimit="10" stroke-width="1"/></g><g transform="translate(51.483 34.737)"><path d="M184.069,220.311l-1.384-6.511q-7.268,1.249-11.756-2.325t-6.6-12.124l9.506-3.774a30.335,30.335,0,0,0,1.979,5.689,7.286,7.286,0,0,0,2.531,3.115,4.289,4.289,0,0,0,3.32.5,3.191,3.191,0,0,0,2.671-2.033,6.479,6.479,0,0,0,.119-3.385,10.671,10.671,0,0,0-2.92-5.635,26.09,26.09,0,0,0-5.548-3.9l-7.03-3.839a41.816,41.816,0,0,1-4.456-3.071,15.964,15.964,0,0,1-3.5-3.937,17.4,17.4,0,0,1-2.206-5.743q-1.4-6.57,1.557-11.042a15.882,15.882,0,0,1,9.15-6.294l-1.319-6.229,3.363-.714,1.319,6.229a13.166,13.166,0,0,1,6.554.4,10.536,10.536,0,0,1,4.477,3,18.31,18.31,0,0,1,2.877,4.575,35.221,35.221,0,0,1,1.806,5.061l-9.69,3.6a31.272,31.272,0,0,0-1.4-4.488,6.885,6.885,0,0,0-1.925-2.844,3.3,3.3,0,0,0-3.017-.454,3.646,3.646,0,0,0-2.65,2.174,5.793,5.793,0,0,0-.314,3.5,8.326,8.326,0,0,0,2.639,4.845,32.78,32.78,0,0,0,4.3,3.028l6.878,3.807a40.366,40.366,0,0,1,5.234,3.634,22,22,0,0,1,4.3,4.748,18.66,18.66,0,0,1,2.639,6.565,15.437,15.437,0,0,1-.065,7.073,12.73,12.73,0,0,1-3.288,5.851,14.4,14.4,0,0,1-6.208,3.656l1.4,6.576Z" transform="translate(-158.346 -149.05)" fill="#263238"/></g></g><g transform="translate(6497.729 1190.932)"><path d="M140.956,424.657l12.838,9.1s7.744,1.59,8.728,2.379.995,4.164.995,4.164-7.938.995-15.282,1.19-11.107,0-16.872-.195-10.512.195-11.713-1.19-.032-13.508-.032-13.508S133.083,419.325,140.956,424.657Z" transform="translate(-119.113 -422.703)" fill="#fff" stroke="#263238" stroke-miterlimit="10" stroke-width="1"/><path d="M148.243,440.4c7.343-.195,15.282-1.19,15.282-1.19a15.117,15.117,0,0,0-.173-2.12c-8.219.671-23.469,1.73-27.611.725-4.715-1.136-13.541-1.611-16.59-1.741a6.3,6.3,0,0,0,.519,2.931c1.19,1.384,5.948.995,11.713,1.19C137.125,440.4,140.9,440.591,148.243,440.4Z" transform="translate(-119.11 -421.613)" fill="#fff" stroke="#263238" stroke-miterlimit="10" stroke-width="1"/></g><g transform="translate(6421.078 1197.187)"><path d="M73.157,429.7l6.749,8.533,11.713,7.343c.79,2.379.4,2.974.195,3.774s-3.774.995-8.133.79-15.076,1.19-18.256.195-13.292-3.774-14.481-4.369-3.18-1.19-2.585-3.374,2.347-9.831,2.347-9.831A26.915,26.915,0,0,1,73.157,429.7Z" transform="translate(-48.238 -428.487)" fill="#fff" stroke="#263238" stroke-miterlimit="10" stroke-width="1"/><path d="M83.67,449.173c4.369.195,7.938,0,8.133-.79a4.245,4.245,0,0,0,.216-2.087c-5.418.238-19.456.779-23.436.3-4.542-.541-17.7-5.4-19.911-6.229-.13.508-.238.952-.324,1.265-.595,2.185,1.384,2.779,2.585,3.374s11.313,3.374,14.481,4.369S79.312,448.979,83.67,449.173Z" transform="translate(-48.239 -427.518)" fill="#fff" stroke="#263238" stroke-miterlimit="10" stroke-width="1"/></g><path d="M64.439,302.748l5.613,68.07L52.607,433.686l-2.487,9.971s1.936,1.666,7.2,1.384,15.79-2.769,15.79-2.769a9.105,9.105,0,0,0,1.1-4.7c-.281-2.217-1.384-3.05-1.384-3.872s23.263-62.868,23.263-62.868l2.217-36,15.79,40.156,10.242,62.035s.552,3.05,1.384,2.769,14.676-5.267,14.676-5.267l5.267.552s.552-8.036-1.666-9.69a10.777,10.777,0,0,1-3.05-3.32l-2.217-58.986-21.6-60.651-1.936-7.473-49.858,2.758Z" transform="translate(6372.992 757.816)" fill="#263238" stroke="#263238" stroke-miterlimit="10" stroke-width="1"/><path d="M63.36,302.553l.454,3.71,52.248-4.045-2.25-4.878Z" transform="translate(6374.071 758.011)" fill="#4d6ac1" stroke="#263238" stroke-miterlimit="10" stroke-width="1"/><path d="M58.195,224.276s-3.18,10.772-2.823,15.714S61.9,283.943,61.9,283.943l2.293,15s-1.763,4.586-1.59,5.645-.173,3.883,1.417,4.586,15-.173,28.779-.53,19.067-.887,20.83-1.59,3.883-3.18,3.526-5.116a40.09,40.09,0,0,0-1.763-5.472s-.7-47.132-1.763-54.367-2.293-17.12-6-20.83-9.885-5.3-9.885-5.3L92.8,225.152s-16.947-6.889-23.123-7.592C63.483,216.857,58.195,224.276,58.195,224.276Z" transform="translate(6373.417 751.378)" fill="#4d6ac1" stroke="#263238" stroke-miterlimit="10" stroke-width="1"/><path d="M67.936,255.44a50.36,50.36,0,0,1-5.116,1.406" transform="translate(6374.027 754.595)" fill="none" stroke="#263238" stroke-miterlimit="10" stroke-width="1"/><path d="M82.957,250.6s-6.576,2.3-12.437,4.207" transform="translate(6374.654 754.201)" fill="none" stroke="#263238" stroke-miterlimit="10" stroke-width="1"/><path d="M67.015,267.36a24.96,24.96,0,0,1-2.855,1.774" transform="translate(6374.136 755.567)" fill="none" stroke="#263238" stroke-miterlimit="10" stroke-width="1"/><path d="M84.764,252.47s-8.349,8.349-15.174,13.822" transform="translate(6374.579 754.353)" fill="none" stroke="#263238" stroke-miterlimit="10" stroke-width="1"/><g transform="translate(6428.175 956.842)"><path d="M95.3,235.126s-14.3-7.592-21.187-9.712-9.355-2.477-10.945-2.12-7.765,6.705-8.3,4.943,1.947-13.065,2.65-15.53S69,207.234,72,206.347s18.007,4.943,21.36,6,6.532,4.943,6.532,7.592S95.3,235.126,95.3,235.126Z" transform="translate(-54.802 -206.255)" fill="#4d6ac1" stroke="#263238" stroke-miterlimit="10" stroke-width="1"/><path d="M58.56,215.791s2.888-2.3,4.618-1.157S93.99,232.176,93.99,232.176l1.482-15.228" transform="translate(-54.496 -205.599)" fill="none" stroke="#263238" stroke-miterlimit="10" stroke-width="1"/></g><g transform="translate(6430.73 904)"><g transform="translate(9.515 15.631)"><path d="M98.989,172.91s2.509,7.527,2.509,9.442-.887,5.018-.292,6.2,4.131,6.64,3.547,7.527-2.8,4.131-2.8,4.131-.595,11.075-1.179,12.254-4.423,1.038-6.2,1.038H90.889s3.245,21.846,2.509,22.138-21.846-21.252-21.846-21.252l.735-15.79s-7.376-10.923-6.2-15.79,12.7-8.706,18.894-10.328S98.989,172.91,98.989,172.91Z" transform="translate(-65.962 -171.849)" fill="#fff" stroke="#263238" stroke-miterlimit="10" stroke-width="1"/><path d="M95.16,188.338c.205,1.125-.108,2.12-.714,2.239s-1.255-.7-1.471-1.828.108-2.12.714-2.239S94.943,187.214,95.16,188.338Z" transform="translate(-63.766 -170.655)" fill="#263238"/><path d="M91.32,184.7s2.217-2.661,5.31-1.471" transform="translate(-63.895 -170.946)" fill="none" stroke="#263238" stroke-miterlimit="10" stroke-width="1"/><path d="M89.27,195.76a9.923,9.923,0,0,0,6.2,3.839" transform="translate(-64.062 -169.9)" fill="none" stroke="#263238" stroke-miterlimit="10" stroke-width="1"/></g><path d="M75.653,194.02s3.839.595,3.839-.443-.443-4.867-.443-4.867,5.17-4.131,5.018-6.056-2.509-3.547-2.358-4.131,7.084-2.661,12.7-2.661,6.792,1.179,8.566-1.471,3.1-6.2-.292-9.885S97.662,162.44,95.888,162s-6.932-5.613-10.48-4.423A5.79,5.79,0,0,0,81.429,162s-6.64-4.423-9.442-2.066a8.491,8.491,0,0,0-3.1,5.018,7.572,7.572,0,0,0-6.2,4.131c-1.914,3.98-1.774,6.2-1.774,6.2s-3.688,2.217-3.547,5.462a9.605,9.605,0,0,0,1.179,4.726s-3.1,1.33,0,6.056,4.283,5.31,4.283,5.31-3.547.443,0,3.4,10.036,4.131,11.518,4.867,1.774-4.131,1.774-7.084A11.787,11.787,0,0,0,75.653,194.02Z" transform="translate(-57.164 -157.396)" fill="#263238" stroke="#263238" stroke-miterlimit="10" stroke-width="1"/><path d="M76.963,192.9s-3.839-5.018-5.905-3.4-.735,8.706,1.471,10.923,5.462-1.622,5.462-1.622" transform="translate(-56.116 -154.805)" fill="#fff" stroke="#263238" stroke-miterlimit="10" stroke-width="1"/><path d="M89.48,210.368l-6.37-.108,7.419,7.592Z" transform="translate(-55.05 -153.087)" fill="#263238" stroke="#263238" stroke-miterlimit="10" stroke-width="1"/></g><g transform="translate(6437.961 943.856)"><path d="M75.5,230.275l30.261,13.941,24.95-33.613s-.357-8.468,0-9.712,3.353-5.645,3.883-6.359,1.59,0,1.763,1.06-.53,1.947-.887,2.823-1.06,2.823-1.06,2.823l.887,2.65,9.355-7.419s2.12-2.823,2.823-1.59h0a2.186,2.186,0,0,1-.141,2.379L143.06,203l2.823.173,6.889-5.829s1.233-.53,1.417,1.06h0a3.212,3.212,0,0,1-.995,2.682l-4.218,3.937L146.25,206.7l8.122-3.353s1.06,1.06.7,1.59l-8.825,6.889,6.532-1.06s.887,1.233.357,1.947l-18.007,5.116s-25.123,47.208-25.48,47.911-4.056,2.293-6.889,1.417-38.913-16.59-38.913-16.59" transform="translate(-63.85 -194.248)" fill="#4d6ac1" stroke="#263238" stroke-miterlimit="10" stroke-width="1"/></g><path d="M118.284,242.657c6.521-12.254,13.205-24.81,13.205-24.81l18.007-5.116c.53-.7-.357-1.947-.357-1.947l-6.532,1.06,8.825-6.889c.357-.53-.7-1.59-.7-1.59l-8.122,3.353,2.725-1.676,4.218-3.937a3.188,3.188,0,0,0,.995-2.682c-.173-1.59-1.417-1.06-1.417-1.06l-6.889,5.829-2.823-.173,4.272-5.743a2.164,2.164,0,0,0,.141-2.379h0c-.7-1.233-2.823,1.59-2.823,1.59l-9.355,7.419-.887-2.65s.7-1.947,1.06-2.823,1.06-1.763.887-2.823-1.233-1.763-1.763-1.06-3.526,5.116-3.883,6.359,0,9.712,0,9.712l-18.515,24.94Z" transform="translate(6377.754 749.609)" fill="#fff" stroke="#263238" stroke-miterlimit="10" stroke-width="1"/><g transform="translate(6576.524 833.749)"><path d="M366.158,108.717V436.468a16.284,16.284,0,0,1-16.288,16.288H208.258a16.284,16.284,0,0,1-16.288-16.288V108.717A16.279,16.279,0,0,1,208.247,92.44h60.792l.054.184c1.514,5.451,5.007,9,8.868,9h2.217c3.872,0,7.354-3.547,8.868-9l.054-.184h60.77A16.275,16.275,0,0,1,366.158,108.717Z" transform="translate(-191.97 -92.44)" fill="#fff" stroke="#263238" stroke-linecap="round" stroke-linejoin="round" stroke-miterlimit="10" stroke-width="1"/></g><g transform="translate(6576.524 833.739)"><path d="M366.158,118v-9.279A16.284,16.284,0,0,0,349.87,92.43H289.1l-.054.184c-1.514,5.451-5.007,9-8.868,9h-2.217c-3.872,0-7.354-3.547-8.868-9l-.054-.184H208.247a16.279,16.279,0,0,0-16.277,16.277V118H366.158Z" transform="translate(-191.97 -92.43)" fill="#263238" stroke="#263238" stroke-miterlimit="10" stroke-width="1"/><path d="M191.97,402.45V411.2a16.284,16.284,0,0,0,16.288,16.288H349.881A16.284,16.284,0,0,0,366.169,411.2V402.45Z" transform="translate(-191.97 -67.16)" fill="#263238" stroke="#263238" stroke-miterlimit="10" stroke-width="1"/></g><path d="M377.855,187.453V154.716h-2.963V112.807A25.836,25.836,0,0,0,349.055,86.97H210.3a25.836,25.836,0,0,0-25.837,25.837V445.826A25.836,25.836,0,0,0,210.3,471.663H349.055a25.836,25.836,0,0,0,25.837-25.837V215.345h2.963V196h-2.963v-8.555h2.963ZM366.77,427.375a25.836,25.836,0,0,1-25.837,25.837H218.409a25.836,25.836,0,0,1-25.837-25.837V118.712a25.834,25.834,0,0,1,25.837-25.826H269.64l.054.184c1.514,5.451,5.007,9,8.868,9h2.217c3.872,0,7.354-3.547,8.868-9l.054-.184h51.22a25.834,25.834,0,0,1,25.837,25.826V427.375Z" transform="translate(6383.942 740.864)" fill="#4d6ac1" stroke="#263238" stroke-linecap="round" stroke-linejoin="round" stroke-miterlimit="10" stroke-width="1"/><path d="M346.764,90.26H212.138a24.917,24.917,0,0,0-24.918,24.918V442.919a24.917,24.917,0,0,0,24.918,24.918H346.753a24.917,24.917,0,0,0,24.918-24.918V115.178A24.915,24.915,0,0,0,346.764,90.26Zm19.781,337.766a24.917,24.917,0,0,1-24.918,24.918H217.275a24.917,24.917,0,0,1-24.918-24.918v-310.5a24.906,24.906,0,0,1,24.907-24.907h52.161l.054.184c1.514,5.451,5.007,9,8.868,9h2.217c3.872,0,7.354-3.547,8.868-9l.054-.184h52.14a24.917,24.917,0,0,1,24.918,24.918Z" transform="translate(6384.167 741.132)" fill="#263238" stroke="#263238" stroke-linecap="round" stroke-linejoin="round" stroke-miterlimit="10" stroke-width="1"/><path d="M274.615,93.763a2.423,2.423,0,1,0-2.423,2.423A2.419,2.419,0,0,0,274.615,93.763Z" transform="translate(6390.895 741.22)" fill="#fff"/><g transform="translate(6588.334 841.212)"><g transform="translate(0 0.984)"><path d="M206.556,102.324c0,2.455-2.758,3.342-2.769,5.213v.13h2.671v.822H202.89v-.7c0-2.628,2.758-3.136,2.758-5.429,0-.833-.281-1.276-.952-1.276s-.952.476-.952,1.2v.725H202.9v-.66c0-1.244.573-2.066,1.828-2.066S206.556,101.08,206.556,102.324Z" transform="translate(-202.89 -100.248)" fill="#fff"/><path d="M210.677,102.312v.205a1.628,1.628,0,0,1-.984,1.676,1.627,1.627,0,0,1,.984,1.687v.627c0,1.244-.584,2.055-1.839,2.055s-1.828-.811-1.828-2.055v-.562h.844v.616c0,.735.3,1.179.952,1.179s.952-.433.952-1.255v-.627c0-.8-.335-1.19-1.027-1.211h-.487v-.811h.53a.974.974,0,0,0,.973-1.114v-.368c0-.833-.292-1.265-.952-1.265s-.952.454-.952,1.19v.422H207v-.368c0-1.244.584-2.044,1.828-2.044C210.093,100.268,210.677,101.069,210.677,102.312Z" transform="translate(-202.555 -100.247)" fill="#fff"/><path d="M212.1,102.73v1.125h-.876V102.73Zm0,4.423v1.125h-.876v-1.125Z" transform="translate(-202.211 -100.048)" fill="#fff"/><path d="M213.8,103.66a1.306,1.306,0,0,1,1.211-.671c1.049,0,1.514.768,1.514,1.925v1.59c0,1.244-.595,2.055-1.839,2.055s-1.828-.811-1.828-2.055v-.552h.844v.606c0,.735.3,1.179.952,1.179s.952-.443.952-1.179V104.98c0-.735-.3-1.179-.952-1.179a.884.884,0,0,0-.919.876v.184h-.844l.216-4.521h3.212v.811h-2.4Z" transform="translate(-202.077 -100.243)" fill="#fff"/><path d="M220.709,102.3v.151h-.844v-.205c0-.735-.3-1.168-.963-1.168-.681,0-.984.443-.984,1.309v1.828a1.3,1.3,0,0,1,1.309-.876c1.049,0,1.514.757,1.514,1.925V106.5c0,1.244-.616,2.055-1.86,2.055s-1.871-.811-1.871-2.055v-4.153c0-1.287.584-2.1,1.871-2.1C220.125,100.272,220.709,101.061,220.709,102.3Zm-2.812,3.039v1.222c0,.735.3,1.179.963,1.179s.963-.443.963-1.179v-1.222c0-.735-.314-1.179-.963-1.179S217.9,104.619,217.9,105.344Z" transform="translate(-201.739 -100.25)" fill="#fff"/></g><g transform="translate(105.523 0)"><rect width="2.304" height="5.743" transform="translate(0 3.396)" fill="#fff"/><rect width="2.304" height="6.9" transform="translate(3.071 2.239)" fill="#fff"/><rect width="2.304" height="7.711" transform="translate(6.132 1.428)" fill="#fff"/><rect width="2.293" height="9.139" transform="translate(9.193)" fill="#fff"/><g transform="translate(26.151 0.562)"><path d="M338.429,108.285H324.64V99.86h13.789Zm-13.021-.768h12.253v-6.9H325.408Z" transform="translate(-324.64 -99.86)" fill="#fff"/><g transform="translate(1.914 1.59)"><rect width="7.279" height="5.224" fill="#fff"/></g><g transform="translate(13.303 3.212)"><rect width="1.73" height="1.99" fill="#fff"/></g></g><g transform="translate(15.243 5.263)"><path d="M320.4,106.092a.454.454,0,0,1-.26-.076c-2.8-1.666-4.661-.119-4.737-.054a.514.514,0,0,1-.725-.054.523.523,0,0,1,.043-.725c.1-.087,2.477-2.12,5.948-.054a.514.514,0,0,1,.184.7A.534.534,0,0,1,320.4,106.092Z" transform="translate(-314.554 -104.206)" fill="#fff"/></g><g transform="translate(14.201 3.233)"><path d="M321.517,104.515a.454.454,0,0,1-.26-.076c-4.056-2.412-6.781-.076-6.814-.054a.523.523,0,0,1-.725-.043.513.513,0,0,1,.043-.725c.032-.032,3.32-2.844,8.025-.054a.514.514,0,0,1,.184.7A.548.548,0,0,1,321.517,104.515Z" transform="translate(-313.591 -102.33)" fill="#fff"/></g><g transform="translate(13.264 0.928)"><path d="M322.529,102.688a.454.454,0,0,1-.26-.076c-5.137-3.061-8.555-.184-8.7-.054a.514.514,0,0,1-.725-.054.523.523,0,0,1,.043-.725c.043-.032,4.1-3.5,9.907-.054a.514.514,0,0,1,.184.7A.559.559,0,0,1,322.529,102.688Z" transform="translate(-312.724 -100.198)" fill="#fff"/></g><g transform="translate(16.969 6.727)"><path d="M318.724,106.847a1.287,1.287,0,1,1-1.287-1.287A1.283,1.283,0,0,1,318.724,106.847Z" transform="translate(-316.15 -105.56)" fill="#fff"/></g></g></g><path d="M344.344,342.3H212.324a7.754,7.754,0,0,1-7.754-7.754V258.524a7.754,7.754,0,0,1,7.754-7.754h132.02a7.754,7.754,0,0,1,7.754,7.754v76.019A7.747,7.747,0,0,1,344.344,342.3Z" transform="translate(6385.581 754.215)" fill="#4d6ac1" stroke="#263238" stroke-linecap="round" stroke-linejoin="round" stroke-miterlimit="10" stroke-width="1"/><rect width="15.617" height="6.457" transform="translate(6601.463 1077.121)" fill="#263238"/><rect width="15.617" height="6.457" transform="translate(6622.196 1077.121)" fill="#263238"/><rect width="15.617" height="6.457" transform="translate(6642.917 1077.121)" fill="#263238"/><rect width="15.617" height="6.457" transform="translate(6663.65 1077.121)" fill="#263238"/><rect width="15.617" height="6.457" transform="translate(6684.383 1077.121)" fill="#263238"/><rect width="15.617" height="6.457" transform="translate(6705.115 1077.121)" fill="#263238"/><path d="M245.366,305.437H218.61a3.577,3.577,0,0,1-3.58-3.58V283.71a3.577,3.577,0,0,1,3.58-3.58h26.757a3.577,3.577,0,0,1,3.58,3.58v18.148A3.577,3.577,0,0,1,245.366,305.437Z" transform="translate(6386.434 756.608)" fill="#fff" stroke="#263238" stroke-linecap="round" stroke-linejoin="round" stroke-miterlimit="10" stroke-width="1"/><rect width="74.3" height="3.764" transform="translate(6601.463 1015.746)" fill="#263238"/><g transform="translate(6615.912 889.064)"><g transform="translate(0 0)"><circle cx="36.912" cy="36.912" r="36.912" transform="translate(0 71.904) rotate(-76.914)" fill="#263238"/></g><g transform="translate(31.245 13.426)"><path d="M270.777,221.312V215.3q-6.651-.26-9.95-4.261t-3.547-11.951l9.106-1.547a26.717,26.717,0,0,0,.681,5.4,6.841,6.841,0,0,0,1.644,3.234,3.9,3.9,0,0,0,2.844,1.071,2.911,2.911,0,0,0,2.747-1.287,5.84,5.84,0,0,0,.746-2.974,9.66,9.66,0,0,0-1.514-5.527,23.472,23.472,0,0,0-4.164-4.488l-5.494-4.715a36.619,36.619,0,0,1-3.363-3.558,14.367,14.367,0,0,1-2.358-4.131,15.573,15.573,0,0,1-.876-5.494c0-4.045,1.146-7.2,3.461-9.463a14.289,14.289,0,0,1,9.269-3.839V156h3.1v5.754a12.069,12.069,0,0,1,5.721,1.579,9.619,9.619,0,0,1,3.4,3.493,16.127,16.127,0,0,1,1.676,4.586,32.411,32.411,0,0,1,.649,4.813l-9.236,1.352a29.106,29.106,0,0,0-.389-4.229,6.346,6.346,0,0,0-1.157-2.877,2.972,2.972,0,0,0-2.585-.973,3.291,3.291,0,0,0-2.747,1.417,5.211,5.211,0,0,0-.941,3.039,7.55,7.55,0,0,0,1.417,4.78,30.339,30.339,0,0,0,3.234,3.493l5.364,4.65a37.2,37.2,0,0,1,3.948,4.2,19.888,19.888,0,0,1,2.909,5.007,16.763,16.763,0,0,1,1.1,6.294,13.936,13.936,0,0,1-1.384,6.229,11.538,11.538,0,0,1-4,4.553,13.024,13.024,0,0,1-6.175,2.066v6.067h-3.136Z" transform="translate(-257.28 -156)" fill="#fff" stroke="#263238" stroke-linecap="round" stroke-linejoin="round" stroke-miterlimit="10" stroke-width="1"/></g></g><circle cx="10.458" cy="10.458" r="10.458" transform="translate(6678.737 903.02)" fill="#4d6ac1" stroke="#263238" stroke-linecap="round" stroke-linejoin="round" stroke-miterlimit="10" stroke-width="1"/><g transform="translate(6682.569 901.493)"><path d="M296.617,171.616h-.043a1.4,1.4,0,0,1-1.092-.562l-5.159-6.673a1.442,1.442,0,1,1,2.282-1.763l4.088,5.289,10.685-12.329a1.441,1.441,0,1,1,2.174,1.893L297.709,171.13A1.509,1.509,0,0,1,296.617,171.616Z" transform="translate(-290.023 -155.078)" fill="#263238"/></g></g></svg>